<mxfile host="app.diagrams.net" agent="Mozilla/5.0 (Windows NT 10.0; Win64; x64) AppleWebKit/537.36 (KHTML, like Gecko) Chrome/131.0.0.0 Safari/537.36" version="26.1.3">
  <diagram name="第 1 页" id="DFIpK8md_fcUtv3xiPu4">
    <mxGraphModel dx="1434" dy="1907" grid="1" gridSize="10" guides="1" tooltips="1" connect="1" arrows="1" fold="1" page="1" pageScale="1" pageWidth="827" pageHeight="1169" math="0" shadow="0">
      <root>
        <mxCell id="0" />
        <mxCell id="1" parent="0" />
        <mxCell id="Y7ee8ukr4ZgqE5oiGkmK-1" value="" style="pointerEvents=1;verticalLabelPosition=bottom;shadow=0;dashed=0;align=center;html=1;verticalAlign=top;shape=mxgraph.electrical.waveforms.square_wave;fontColor=#C3ABD0;" vertex="1" parent="1">
          <mxGeometry x="160.57" y="-265" width="90" height="80" as="geometry" />
        </mxCell>
        <mxCell id="Y7ee8ukr4ZgqE5oiGkmK-2" value="" style="pointerEvents=1;verticalLabelPosition=bottom;shadow=0;dashed=0;align=center;html=1;verticalAlign=top;shape=mxgraph.electrical.waveforms.square_wave;fontColor=#C3ABD0;" vertex="1" parent="1">
          <mxGeometry x="250.57" y="-265" width="90" height="80" as="geometry" />
        </mxCell>
        <mxCell id="Y7ee8ukr4ZgqE5oiGkmK-3" value="" style="pointerEvents=1;verticalLabelPosition=bottom;shadow=0;dashed=0;align=center;html=1;verticalAlign=top;shape=mxgraph.electrical.waveforms.square_wave;fontColor=#C3ABD0;" vertex="1" parent="1">
          <mxGeometry x="340.57" y="-265" width="90" height="80" as="geometry" />
        </mxCell>
        <mxCell id="Y7ee8ukr4ZgqE5oiGkmK-4" value="" style="pointerEvents=1;verticalLabelPosition=bottom;shadow=0;dashed=0;align=center;html=1;verticalAlign=top;shape=mxgraph.electrical.waveforms.square_wave;fontColor=#C3ABD0;" vertex="1" parent="1">
          <mxGeometry x="430.57" y="-265" width="90" height="80" as="geometry" />
        </mxCell>
        <mxCell id="Y7ee8ukr4ZgqE5oiGkmK-5" value="" style="pointerEvents=1;verticalLabelPosition=bottom;shadow=0;dashed=0;align=center;html=1;verticalAlign=top;shape=mxgraph.electrical.waveforms.square_wave;fontColor=#C3ABD0;" vertex="1" parent="1">
          <mxGeometry x="160.57" y="-145" width="110" height="80" as="geometry" />
        </mxCell>
        <mxCell id="Y7ee8ukr4ZgqE5oiGkmK-6" value="" style="pointerEvents=1;verticalLabelPosition=bottom;shadow=0;dashed=0;align=center;html=1;verticalAlign=top;shape=mxgraph.electrical.waveforms.square_wave;fontColor=#C3ABD0;" vertex="1" parent="1">
          <mxGeometry x="270.57" y="-145" width="110" height="80" as="geometry" />
        </mxCell>
        <mxCell id="Y7ee8ukr4ZgqE5oiGkmK-7" value="" style="pointerEvents=1;verticalLabelPosition=bottom;shadow=0;dashed=0;align=center;html=1;verticalAlign=top;shape=mxgraph.electrical.waveforms.square_wave;fontColor=#C3ABD0;" vertex="1" parent="1">
          <mxGeometry x="380.57" y="-145" width="110" height="80" as="geometry" />
        </mxCell>
        <mxCell id="Y7ee8ukr4ZgqE5oiGkmK-8" value="" style="pointerEvents=1;verticalLabelPosition=bottom;shadow=0;dashed=0;align=center;html=1;verticalAlign=top;shape=mxgraph.electrical.waveforms.square_wave;fontColor=#C3ABD0;" vertex="1" parent="1">
          <mxGeometry x="490.57" y="-145" width="110" height="80" as="geometry" />
        </mxCell>
        <mxCell id="Y7ee8ukr4ZgqE5oiGkmK-9" value="" style="pointerEvents=1;verticalLabelPosition=bottom;shadow=0;dashed=0;align=center;html=1;verticalAlign=top;shape=mxgraph.electrical.waveforms.square_wave;fontColor=#C3ABD0;" vertex="1" parent="1">
          <mxGeometry x="160" y="-385" width="135" height="80" as="geometry" />
        </mxCell>
        <mxCell id="Y7ee8ukr4ZgqE5oiGkmK-10" value="" style="pointerEvents=1;verticalLabelPosition=bottom;shadow=0;dashed=0;align=center;html=1;verticalAlign=top;shape=mxgraph.electrical.waveforms.square_wave;fontColor=#C3ABD0;" vertex="1" parent="1">
          <mxGeometry x="295" y="-385" width="135" height="80" as="geometry" />
        </mxCell>
        <mxCell id="Y7ee8ukr4ZgqE5oiGkmK-11" value="" style="pointerEvents=1;verticalLabelPosition=bottom;shadow=0;dashed=0;align=center;html=1;verticalAlign=top;shape=mxgraph.electrical.waveforms.square_wave;fontColor=#C3ABD0;" vertex="1" parent="1">
          <mxGeometry x="430" y="-385" width="135" height="80" as="geometry" />
        </mxCell>
        <mxCell id="Y7ee8ukr4ZgqE5oiGkmK-12" value="0" style="text;html=1;strokeColor=none;fillColor=none;align=center;verticalAlign=middle;whiteSpace=wrap;rounded=0;fontColor=#000000;" vertex="1" parent="1">
          <mxGeometry x="130" y="-415" width="60" height="30" as="geometry" />
        </mxCell>
        <mxCell id="Y7ee8ukr4ZgqE5oiGkmK-13" value="135" style="text;html=1;strokeColor=none;fillColor=none;align=center;verticalAlign=middle;whiteSpace=wrap;rounded=0;fontColor=#000000;" vertex="1" parent="1">
          <mxGeometry x="197.5" y="-415" width="60" height="30" as="geometry" />
        </mxCell>
        <mxCell id="Y7ee8ukr4ZgqE5oiGkmK-14" value="90" style="text;html=1;strokeColor=none;fillColor=none;align=center;verticalAlign=middle;whiteSpace=wrap;rounded=0;fontColor=#000000;" vertex="1" parent="1">
          <mxGeometry x="175.57" y="-295" width="60" height="30" as="geometry" />
        </mxCell>
        <mxCell id="Y7ee8ukr4ZgqE5oiGkmK-15" value="110" style="text;html=1;strokeColor=none;fillColor=none;align=center;verticalAlign=middle;whiteSpace=wrap;rounded=0;fontColor=#000000;" vertex="1" parent="1">
          <mxGeometry x="185.57" y="-175" width="60" height="30" as="geometry" />
        </mxCell>
        <mxCell id="Y7ee8ukr4ZgqE5oiGkmK-16" value="270" style="text;html=1;strokeColor=none;fillColor=none;align=center;verticalAlign=middle;whiteSpace=wrap;rounded=0;fontColor=#000000;" vertex="1" parent="1">
          <mxGeometry x="265" y="-415" width="60" height="30" as="geometry" />
        </mxCell>
        <mxCell id="Y7ee8ukr4ZgqE5oiGkmK-17" value="405" style="text;html=1;strokeColor=none;fillColor=none;align=center;verticalAlign=middle;whiteSpace=wrap;rounded=0;fontColor=#000000;" vertex="1" parent="1">
          <mxGeometry x="332.5" y="-415" width="60" height="30" as="geometry" />
        </mxCell>
        <mxCell id="Y7ee8ukr4ZgqE5oiGkmK-18" value="540" style="text;html=1;strokeColor=none;fillColor=none;align=center;verticalAlign=middle;whiteSpace=wrap;rounded=0;fontColor=#000000;" vertex="1" parent="1">
          <mxGeometry x="400" y="-415" width="60" height="30" as="geometry" />
        </mxCell>
        <mxCell id="Y7ee8ukr4ZgqE5oiGkmK-19" value="180" style="text;html=1;strokeColor=none;fillColor=none;align=center;verticalAlign=middle;whiteSpace=wrap;rounded=0;fontColor=#000000;" vertex="1" parent="1">
          <mxGeometry x="220.57" y="-295" width="60" height="30" as="geometry" />
        </mxCell>
        <mxCell id="Y7ee8ukr4ZgqE5oiGkmK-20" value="220" style="text;html=1;strokeColor=none;fillColor=none;align=center;verticalAlign=middle;whiteSpace=wrap;rounded=0;fontColor=#000000;" vertex="1" parent="1">
          <mxGeometry x="235.57" y="-175" width="60" height="30" as="geometry" />
        </mxCell>
        <mxCell id="Y7ee8ukr4ZgqE5oiGkmK-21" value="clk0" style="text;html=1;strokeColor=none;fillColor=none;align=center;verticalAlign=middle;whiteSpace=wrap;rounded=0;fontColor=#000000;fontSize=16;" vertex="1" parent="1">
          <mxGeometry x="60" y="-385" width="60" height="30" as="geometry" />
        </mxCell>
        <mxCell id="Y7ee8ukr4ZgqE5oiGkmK-22" value="clk1" style="text;html=1;strokeColor=none;fillColor=none;align=center;verticalAlign=middle;whiteSpace=wrap;rounded=0;fontColor=#000000;fontSize=16;" vertex="1" parent="1">
          <mxGeometry x="60.57" y="-240" width="60" height="30" as="geometry" />
        </mxCell>
        <mxCell id="Y7ee8ukr4ZgqE5oiGkmK-23" value="clk2" style="text;html=1;strokeColor=none;fillColor=none;align=center;verticalAlign=middle;whiteSpace=wrap;rounded=0;fontColor=#000000;fontSize=16;" vertex="1" parent="1">
          <mxGeometry x="60.57" y="-125" width="60" height="30" as="geometry" />
        </mxCell>
        <mxCell id="Y7ee8ukr4ZgqE5oiGkmK-24" value="" style="endArrow=none;dashed=1;html=1;rounded=0;strokeColor=#7F00FF;fontColor=#000000;" edge="1" parent="1">
          <mxGeometry width="50" height="50" relative="1" as="geometry">
            <mxPoint x="205" y="-50" as="sourcePoint" />
            <mxPoint x="205" y="-410" as="targetPoint" />
          </mxGeometry>
        </mxCell>
        <mxCell id="Y7ee8ukr4ZgqE5oiGkmK-25" value="" style="pointerEvents=1;verticalLabelPosition=bottom;shadow=0;dashed=0;align=center;html=1;verticalAlign=top;shape=mxgraph.electrical.waveforms.square_wave;fontColor=#C3ABD0;" vertex="1" parent="1">
          <mxGeometry x="159.43" y="-1090" width="135" height="80" as="geometry" />
        </mxCell>
        <mxCell id="Y7ee8ukr4ZgqE5oiGkmK-26" value="" style="pointerEvents=1;verticalLabelPosition=bottom;shadow=0;dashed=0;align=center;html=1;verticalAlign=top;shape=mxgraph.electrical.waveforms.square_wave;fontColor=#C3ABD0;" vertex="1" parent="1">
          <mxGeometry x="294.43" y="-1090" width="135" height="80" as="geometry" />
        </mxCell>
        <mxCell id="Y7ee8ukr4ZgqE5oiGkmK-27" value="" style="pointerEvents=1;verticalLabelPosition=bottom;shadow=0;dashed=0;align=center;html=1;verticalAlign=top;shape=mxgraph.electrical.waveforms.square_wave;fontColor=#C3ABD0;" vertex="1" parent="1">
          <mxGeometry x="429.43" y="-1090" width="135" height="80" as="geometry" />
        </mxCell>
        <mxCell id="Y7ee8ukr4ZgqE5oiGkmK-28" value="0" style="text;html=1;strokeColor=none;fillColor=none;align=center;verticalAlign=middle;whiteSpace=wrap;rounded=0;fontColor=#000000;" vertex="1" parent="1">
          <mxGeometry x="129.43" y="-1120" width="60" height="30" as="geometry" />
        </mxCell>
        <mxCell id="Y7ee8ukr4ZgqE5oiGkmK-29" value="135" style="text;html=1;strokeColor=none;fillColor=none;align=center;verticalAlign=middle;whiteSpace=wrap;rounded=0;fontColor=#000000;" vertex="1" parent="1">
          <mxGeometry x="196.93" y="-1120" width="60" height="30" as="geometry" />
        </mxCell>
        <mxCell id="Y7ee8ukr4ZgqE5oiGkmK-30" value="270" style="text;html=1;strokeColor=none;fillColor=none;align=center;verticalAlign=middle;whiteSpace=wrap;rounded=0;fontColor=#000000;" vertex="1" parent="1">
          <mxGeometry x="264.43" y="-1120" width="60" height="30" as="geometry" />
        </mxCell>
        <mxCell id="Y7ee8ukr4ZgqE5oiGkmK-31" value="405" style="text;html=1;strokeColor=none;fillColor=none;align=center;verticalAlign=middle;whiteSpace=wrap;rounded=0;fontColor=#000000;" vertex="1" parent="1">
          <mxGeometry x="331.93" y="-1120" width="60" height="30" as="geometry" />
        </mxCell>
        <mxCell id="Y7ee8ukr4ZgqE5oiGkmK-32" value="540" style="text;html=1;strokeColor=none;fillColor=none;align=center;verticalAlign=middle;whiteSpace=wrap;rounded=0;fontColor=#000000;" vertex="1" parent="1">
          <mxGeometry x="399.43" y="-1120" width="60" height="30" as="geometry" />
        </mxCell>
        <mxCell id="Y7ee8ukr4ZgqE5oiGkmK-33" value="clk0" style="text;html=1;strokeColor=none;fillColor=none;align=center;verticalAlign=middle;whiteSpace=wrap;rounded=0;fontColor=#000000;fontSize=16;" vertex="1" parent="1">
          <mxGeometry x="69.42999999999999" y="-1065" width="60" height="30" as="geometry" />
        </mxCell>
        <mxCell id="Y7ee8ukr4ZgqE5oiGkmK-34" value="simulation&lt;br&gt;cycles" style="text;html=1;strokeColor=none;fillColor=none;align=center;verticalAlign=middle;whiteSpace=wrap;rounded=0;fontColor=#7F00FF;fontSize=16;" vertex="1" parent="1">
          <mxGeometry x="69.42999999999999" y="-980" width="60" height="40" as="geometry" />
        </mxCell>
        <mxCell id="Y7ee8ukr4ZgqE5oiGkmK-35" value="" style="endArrow=classic;html=1;rounded=0;strokeColor=#7F00FF;fontSize=16;fontColor=#FF0000;" edge="1" parent="1">
          <mxGeometry width="50" height="50" relative="1" as="geometry">
            <mxPoint x="159.42999999999984" y="-940" as="sourcePoint" />
            <mxPoint x="159.42999999999984" y="-980" as="targetPoint" />
          </mxGeometry>
        </mxCell>
        <mxCell id="Y7ee8ukr4ZgqE5oiGkmK-36" value="" style="endArrow=classic;html=1;rounded=0;strokeColor=#7F00FF;fontSize=16;fontColor=#FF0000;" edge="1" parent="1">
          <mxGeometry width="50" height="50" relative="1" as="geometry">
            <mxPoint x="226.63999999999987" y="-940" as="sourcePoint" />
            <mxPoint x="226.63999999999987" y="-980" as="targetPoint" />
          </mxGeometry>
        </mxCell>
        <mxCell id="Y7ee8ukr4ZgqE5oiGkmK-37" value="" style="endArrow=classic;html=1;rounded=0;strokeColor=#7F00FF;fontSize=16;fontColor=#FF0000;" edge="1" parent="1">
          <mxGeometry width="50" height="50" relative="1" as="geometry">
            <mxPoint x="294.4300000000003" y="-940" as="sourcePoint" />
            <mxPoint x="294.4300000000003" y="-980" as="targetPoint" />
          </mxGeometry>
        </mxCell>
        <mxCell id="Y7ee8ukr4ZgqE5oiGkmK-38" value="" style="endArrow=classic;html=1;rounded=0;strokeColor=#7F00FF;fontSize=16;fontColor=#FF0000;" edge="1" parent="1">
          <mxGeometry width="50" height="50" relative="1" as="geometry">
            <mxPoint x="361.6399999999999" y="-940" as="sourcePoint" />
            <mxPoint x="361.6399999999999" y="-980" as="targetPoint" />
          </mxGeometry>
        </mxCell>
        <mxCell id="Y7ee8ukr4ZgqE5oiGkmK-39" value="" style="endArrow=classic;html=1;rounded=0;strokeColor=#7F00FF;fontSize=16;fontColor=#FF0000;" edge="1" parent="1">
          <mxGeometry width="50" height="50" relative="1" as="geometry">
            <mxPoint x="429.4300000000003" y="-940" as="sourcePoint" />
            <mxPoint x="429.4300000000003" y="-980" as="targetPoint" />
          </mxGeometry>
        </mxCell>
        <mxCell id="Y7ee8ukr4ZgqE5oiGkmK-40" value="" style="endArrow=classic;html=1;rounded=0;strokeColor=#7F00FF;fontSize=16;fontColor=#FF0000;" edge="1" parent="1">
          <mxGeometry width="50" height="50" relative="1" as="geometry">
            <mxPoint x="496.6400000000003" y="-940" as="sourcePoint" />
            <mxPoint x="496.6400000000003" y="-980" as="targetPoint" />
          </mxGeometry>
        </mxCell>
        <mxCell id="Y7ee8ukr4ZgqE5oiGkmK-41" value="" style="endArrow=classic;html=1;rounded=0;strokeColor=#7F00FF;fontSize=16;fontColor=#FF0000;" edge="1" parent="1">
          <mxGeometry width="50" height="50" relative="1" as="geometry">
            <mxPoint x="564.4300000000003" y="-940" as="sourcePoint" />
            <mxPoint x="564.4300000000003" y="-980" as="targetPoint" />
          </mxGeometry>
        </mxCell>
        <mxCell id="Y7ee8ukr4ZgqE5oiGkmK-42" value="675" style="text;html=1;strokeColor=none;fillColor=none;align=center;verticalAlign=middle;whiteSpace=wrap;rounded=0;fontColor=#000000;" vertex="1" parent="1">
          <mxGeometry x="466.93" y="-1120" width="60" height="30" as="geometry" />
        </mxCell>
        <mxCell id="Y7ee8ukr4ZgqE5oiGkmK-43" value="" style="pointerEvents=1;verticalLabelPosition=bottom;shadow=0;dashed=0;align=center;html=1;verticalAlign=top;shape=mxgraph.electrical.waveforms.square_wave;fontColor=#C3ABD0;" vertex="1" parent="1">
          <mxGeometry x="159.57" y="-680" width="90" height="80" as="geometry" />
        </mxCell>
        <mxCell id="Y7ee8ukr4ZgqE5oiGkmK-44" value="" style="pointerEvents=1;verticalLabelPosition=bottom;shadow=0;dashed=0;align=center;html=1;verticalAlign=top;shape=mxgraph.electrical.waveforms.square_wave;fontColor=#C3ABD0;" vertex="1" parent="1">
          <mxGeometry x="249.57" y="-680" width="90" height="80" as="geometry" />
        </mxCell>
        <mxCell id="Y7ee8ukr4ZgqE5oiGkmK-45" value="" style="pointerEvents=1;verticalLabelPosition=bottom;shadow=0;dashed=0;align=center;html=1;verticalAlign=top;shape=mxgraph.electrical.waveforms.square_wave;fontColor=#C3ABD0;" vertex="1" parent="1">
          <mxGeometry x="339.57" y="-680" width="90" height="80" as="geometry" />
        </mxCell>
        <mxCell id="Y7ee8ukr4ZgqE5oiGkmK-46" value="" style="pointerEvents=1;verticalLabelPosition=bottom;shadow=0;dashed=0;align=center;html=1;verticalAlign=top;shape=mxgraph.electrical.waveforms.square_wave;fontColor=#C3ABD0;" vertex="1" parent="1">
          <mxGeometry x="429.57" y="-680" width="90" height="80" as="geometry" />
        </mxCell>
        <mxCell id="Y7ee8ukr4ZgqE5oiGkmK-47" value="" style="pointerEvents=1;verticalLabelPosition=bottom;shadow=0;dashed=0;align=center;html=1;verticalAlign=top;shape=mxgraph.electrical.waveforms.square_wave;fontColor=#C3ABD0;" vertex="1" parent="1">
          <mxGeometry x="159" y="-810" width="135" height="80" as="geometry" />
        </mxCell>
        <mxCell id="Y7ee8ukr4ZgqE5oiGkmK-48" value="" style="pointerEvents=1;verticalLabelPosition=bottom;shadow=0;dashed=0;align=center;html=1;verticalAlign=top;shape=mxgraph.electrical.waveforms.square_wave;fontColor=#C3ABD0;" vertex="1" parent="1">
          <mxGeometry x="294" y="-810" width="135" height="80" as="geometry" />
        </mxCell>
        <mxCell id="Y7ee8ukr4ZgqE5oiGkmK-49" value="" style="pointerEvents=1;verticalLabelPosition=bottom;shadow=0;dashed=0;align=center;html=1;verticalAlign=top;shape=mxgraph.electrical.waveforms.square_wave;fontColor=#C3ABD0;" vertex="1" parent="1">
          <mxGeometry x="429" y="-810" width="135" height="80" as="geometry" />
        </mxCell>
        <mxCell id="Y7ee8ukr4ZgqE5oiGkmK-50" value="0" style="text;html=1;strokeColor=none;fillColor=none;align=center;verticalAlign=middle;whiteSpace=wrap;rounded=0;fontColor=#000000;" vertex="1" parent="1">
          <mxGeometry x="129" y="-840" width="60" height="30" as="geometry" />
        </mxCell>
        <mxCell id="Y7ee8ukr4ZgqE5oiGkmK-51" value="135" style="text;html=1;strokeColor=none;fillColor=none;align=center;verticalAlign=middle;whiteSpace=wrap;rounded=0;fontColor=#000000;" vertex="1" parent="1">
          <mxGeometry x="196.5" y="-840" width="60" height="30" as="geometry" />
        </mxCell>
        <mxCell id="Y7ee8ukr4ZgqE5oiGkmK-52" value="90" style="text;html=1;strokeColor=none;fillColor=none;align=center;verticalAlign=middle;whiteSpace=wrap;rounded=0;fontColor=#000000;" vertex="1" parent="1">
          <mxGeometry x="174.57" y="-710" width="60" height="30" as="geometry" />
        </mxCell>
        <mxCell id="Y7ee8ukr4ZgqE5oiGkmK-53" value="270" style="text;html=1;strokeColor=none;fillColor=none;align=center;verticalAlign=middle;whiteSpace=wrap;rounded=0;fontColor=#000000;" vertex="1" parent="1">
          <mxGeometry x="264" y="-840" width="60" height="30" as="geometry" />
        </mxCell>
        <mxCell id="Y7ee8ukr4ZgqE5oiGkmK-54" value="405" style="text;html=1;strokeColor=none;fillColor=none;align=center;verticalAlign=middle;whiteSpace=wrap;rounded=0;fontColor=#000000;" vertex="1" parent="1">
          <mxGeometry x="331.5" y="-840" width="60" height="30" as="geometry" />
        </mxCell>
        <mxCell id="Y7ee8ukr4ZgqE5oiGkmK-55" value="540" style="text;html=1;strokeColor=none;fillColor=none;align=center;verticalAlign=middle;whiteSpace=wrap;rounded=0;fontColor=#000000;" vertex="1" parent="1">
          <mxGeometry x="399" y="-840" width="60" height="30" as="geometry" />
        </mxCell>
        <mxCell id="Y7ee8ukr4ZgqE5oiGkmK-56" value="180" style="text;html=1;strokeColor=none;fillColor=none;align=center;verticalAlign=middle;whiteSpace=wrap;rounded=0;fontColor=#000000;" vertex="1" parent="1">
          <mxGeometry x="219.57" y="-710" width="60" height="30" as="geometry" />
        </mxCell>
        <mxCell id="Y7ee8ukr4ZgqE5oiGkmK-57" value="clk0" style="text;html=1;strokeColor=none;fillColor=none;align=center;verticalAlign=middle;whiteSpace=wrap;rounded=0;fontColor=#000000;fontSize=16;" vertex="1" parent="1">
          <mxGeometry x="59.00000000000001" y="-810" width="60" height="30" as="geometry" />
        </mxCell>
        <mxCell id="Y7ee8ukr4ZgqE5oiGkmK-58" value="clk1" style="text;html=1;strokeColor=none;fillColor=none;align=center;verticalAlign=middle;whiteSpace=wrap;rounded=0;fontColor=#000000;fontSize=16;" vertex="1" parent="1">
          <mxGeometry x="59.57000000000001" y="-655" width="60" height="30" as="geometry" />
        </mxCell>
        <mxCell id="Y7ee8ukr4ZgqE5oiGkmK-59" value="0" style="text;html=1;strokeColor=none;fillColor=none;align=center;verticalAlign=middle;whiteSpace=wrap;rounded=0;fontColor=#000000;" vertex="1" parent="1">
          <mxGeometry x="129.57" y="-710" width="60" height="30" as="geometry" />
        </mxCell>
        <mxCell id="Y7ee8ukr4ZgqE5oiGkmK-60" value="270" style="text;html=1;strokeColor=none;fillColor=none;align=center;verticalAlign=middle;whiteSpace=wrap;rounded=0;fontColor=#000000;" vertex="1" parent="1">
          <mxGeometry x="267.07" y="-710" width="60" height="30" as="geometry" />
        </mxCell>
        <mxCell id="Y7ee8ukr4ZgqE5oiGkmK-61" value="360" style="text;html=1;strokeColor=none;fillColor=none;align=center;verticalAlign=middle;whiteSpace=wrap;rounded=0;fontColor=#000000;" vertex="1" parent="1">
          <mxGeometry x="312.07" y="-710" width="60" height="30" as="geometry" />
        </mxCell>
        <mxCell id="Y7ee8ukr4ZgqE5oiGkmK-62" value="450" style="text;html=1;strokeColor=none;fillColor=none;align=center;verticalAlign=middle;whiteSpace=wrap;rounded=0;fontColor=#000000;" vertex="1" parent="1">
          <mxGeometry x="354.57" y="-710" width="60" height="30" as="geometry" />
        </mxCell>
        <mxCell id="Y7ee8ukr4ZgqE5oiGkmK-63" value="540" style="text;html=1;strokeColor=none;fillColor=none;align=center;verticalAlign=middle;whiteSpace=wrap;rounded=0;fontColor=#000000;" vertex="1" parent="1">
          <mxGeometry x="399" y="-710" width="60" height="30" as="geometry" />
        </mxCell>
        <mxCell id="Y7ee8ukr4ZgqE5oiGkmK-64" value="630" style="text;html=1;strokeColor=none;fillColor=none;align=center;verticalAlign=middle;whiteSpace=wrap;rounded=0;fontColor=#000000;" vertex="1" parent="1">
          <mxGeometry x="444.57" y="-710" width="60" height="30" as="geometry" />
        </mxCell>
        <mxCell id="Y7ee8ukr4ZgqE5oiGkmK-65" value="675" style="text;html=1;strokeColor=none;fillColor=none;align=center;verticalAlign=middle;whiteSpace=wrap;rounded=0;fontColor=#000000;" vertex="1" parent="1">
          <mxGeometry x="466.5" y="-840" width="60" height="30" as="geometry" />
        </mxCell>
        <mxCell id="Y7ee8ukr4ZgqE5oiGkmK-66" value="simulation&lt;br&gt;cycles" style="text;html=1;strokeColor=none;fillColor=none;align=center;verticalAlign=middle;whiteSpace=wrap;rounded=0;fontColor=#7F00FF;fontSize=16;" vertex="1" parent="1">
          <mxGeometry x="68.99999999999999" y="-560" width="60" height="40" as="geometry" />
        </mxCell>
        <mxCell id="Y7ee8ukr4ZgqE5oiGkmK-67" value="" style="endArrow=classic;html=1;rounded=0;strokeColor=#7F00FF;fontSize=16;fontColor=#FF0000;" edge="1" parent="1">
          <mxGeometry width="50" height="50" relative="1" as="geometry">
            <mxPoint x="159" y="-520" as="sourcePoint" />
            <mxPoint x="159" y="-560" as="targetPoint" />
          </mxGeometry>
        </mxCell>
        <mxCell id="Y7ee8ukr4ZgqE5oiGkmK-68" value="" style="endArrow=classic;html=1;rounded=0;strokeColor=#7F00FF;fontSize=16;fontColor=#FF0000;" edge="1" parent="1">
          <mxGeometry width="50" height="50" relative="1" as="geometry">
            <mxPoint x="226.21000000000004" y="-520" as="sourcePoint" />
            <mxPoint x="226.21000000000004" y="-560" as="targetPoint" />
          </mxGeometry>
        </mxCell>
        <mxCell id="Y7ee8ukr4ZgqE5oiGkmK-69" value="" style="endArrow=classic;html=1;rounded=0;strokeColor=#7F00FF;fontSize=16;fontColor=#FF0000;" edge="1" parent="1">
          <mxGeometry width="50" height="50" relative="1" as="geometry">
            <mxPoint x="294" y="-520" as="sourcePoint" />
            <mxPoint x="294" y="-560" as="targetPoint" />
          </mxGeometry>
        </mxCell>
        <mxCell id="Y7ee8ukr4ZgqE5oiGkmK-70" value="" style="endArrow=classic;html=1;rounded=0;strokeColor=#7F00FF;fontSize=16;fontColor=#FF0000;" edge="1" parent="1">
          <mxGeometry width="50" height="50" relative="1" as="geometry">
            <mxPoint x="361.21000000000004" y="-520" as="sourcePoint" />
            <mxPoint x="361.21000000000004" y="-560" as="targetPoint" />
          </mxGeometry>
        </mxCell>
        <mxCell id="Y7ee8ukr4ZgqE5oiGkmK-71" value="" style="endArrow=classic;html=1;rounded=0;strokeColor=#7F00FF;fontSize=16;fontColor=#FF0000;" edge="1" parent="1">
          <mxGeometry width="50" height="50" relative="1" as="geometry">
            <mxPoint x="429.00000000000045" y="-520" as="sourcePoint" />
            <mxPoint x="429.00000000000045" y="-560" as="targetPoint" />
          </mxGeometry>
        </mxCell>
        <mxCell id="Y7ee8ukr4ZgqE5oiGkmK-72" value="" style="endArrow=classic;html=1;rounded=0;strokeColor=#7F00FF;fontSize=16;fontColor=#FF0000;" edge="1" parent="1">
          <mxGeometry width="50" height="50" relative="1" as="geometry">
            <mxPoint x="496.2100000000005" y="-520" as="sourcePoint" />
            <mxPoint x="496.2100000000005" y="-560" as="targetPoint" />
          </mxGeometry>
        </mxCell>
        <mxCell id="Y7ee8ukr4ZgqE5oiGkmK-73" value="" style="endArrow=classic;html=1;rounded=0;strokeColor=#7F00FF;fontSize=16;fontColor=#FF0000;" edge="1" parent="1">
          <mxGeometry width="50" height="50" relative="1" as="geometry">
            <mxPoint x="564" y="-520" as="sourcePoint" />
            <mxPoint x="564" y="-560" as="targetPoint" />
          </mxGeometry>
        </mxCell>
        <mxCell id="Y7ee8ukr4ZgqE5oiGkmK-74" value="" style="endArrow=classic;html=1;rounded=0;strokeColor=#FF0000;fontSize=16;fontColor=#FF0000;" edge="1" parent="1">
          <mxGeometry width="50" height="50" relative="1" as="geometry">
            <mxPoint x="204.23000000000002" y="-520" as="sourcePoint" />
            <mxPoint x="204.23000000000002" y="-560" as="targetPoint" />
          </mxGeometry>
        </mxCell>
        <mxCell id="Y7ee8ukr4ZgqE5oiGkmK-75" value="" style="endArrow=classic;html=1;rounded=0;strokeColor=#FF0000;fontSize=16;fontColor=#FF0000;" edge="1" parent="1">
          <mxGeometry width="50" height="50" relative="1" as="geometry">
            <mxPoint x="249.57000000000016" y="-520" as="sourcePoint" />
            <mxPoint x="249.57000000000016" y="-560" as="targetPoint" />
          </mxGeometry>
        </mxCell>
        <mxCell id="Y7ee8ukr4ZgqE5oiGkmK-76" value="" style="endArrow=classic;html=1;rounded=0;strokeColor=#FF0000;fontSize=16;fontColor=#FF0000;" edge="1" parent="1">
          <mxGeometry width="50" height="50" relative="1" as="geometry">
            <mxPoint x="338.8800000000001" y="-520" as="sourcePoint" />
            <mxPoint x="338.8800000000001" y="-560" as="targetPoint" />
          </mxGeometry>
        </mxCell>
        <mxCell id="Y7ee8ukr4ZgqE5oiGkmK-77" value="" style="endArrow=classic;html=1;rounded=0;strokeColor=#FF0000;fontSize=16;fontColor=#FF0000;" edge="1" parent="1">
          <mxGeometry width="50" height="50" relative="1" as="geometry">
            <mxPoint x="384.23" y="-520" as="sourcePoint" />
            <mxPoint x="384.23" y="-560" as="targetPoint" />
          </mxGeometry>
        </mxCell>
        <mxCell id="Y7ee8ukr4ZgqE5oiGkmK-78" value="" style="endArrow=classic;html=1;rounded=0;strokeColor=#FF0000;fontSize=16;fontColor=#FF0000;" edge="1" parent="1">
          <mxGeometry width="50" height="50" relative="1" as="geometry">
            <mxPoint x="474.23" y="-520" as="sourcePoint" />
            <mxPoint x="474.23" y="-560" as="targetPoint" />
          </mxGeometry>
        </mxCell>
        <mxCell id="Y7ee8ukr4ZgqE5oiGkmK-79" value="" style="endArrow=classic;html=1;rounded=0;strokeColor=#FF0000;fontSize=16;fontColor=#FF0000;" edge="1" parent="1">
          <mxGeometry width="50" height="50" relative="1" as="geometry">
            <mxPoint x="519.5699999999997" y="-520" as="sourcePoint" />
            <mxPoint x="519.5699999999997" y="-560" as="targetPoint" />
          </mxGeometry>
        </mxCell>
        <mxCell id="Y7ee8ukr4ZgqE5oiGkmK-80" value="675" style="text;html=1;strokeColor=none;fillColor=none;align=center;verticalAlign=middle;whiteSpace=wrap;rounded=0;fontColor=#000000;" vertex="1" parent="1">
          <mxGeometry x="467.5" y="-415" width="60" height="30" as="geometry" />
        </mxCell>
        <mxCell id="Y7ee8ukr4ZgqE5oiGkmK-81" value="270" style="text;html=1;strokeColor=none;fillColor=none;align=center;verticalAlign=middle;whiteSpace=wrap;rounded=0;fontColor=#000000;" vertex="1" parent="1">
          <mxGeometry x="267.07" y="-295" width="60" height="30" as="geometry" />
        </mxCell>
        <mxCell id="Y7ee8ukr4ZgqE5oiGkmK-82" value="360" style="text;html=1;strokeColor=none;fillColor=none;align=center;verticalAlign=middle;whiteSpace=wrap;rounded=0;fontColor=#000000;" vertex="1" parent="1">
          <mxGeometry x="312.07" y="-295" width="60" height="30" as="geometry" />
        </mxCell>
        <mxCell id="Y7ee8ukr4ZgqE5oiGkmK-83" value="450" style="text;html=1;strokeColor=none;fillColor=none;align=center;verticalAlign=middle;whiteSpace=wrap;rounded=0;fontColor=#000000;" vertex="1" parent="1">
          <mxGeometry x="354.57" y="-295" width="60" height="30" as="geometry" />
        </mxCell>
        <mxCell id="Y7ee8ukr4ZgqE5oiGkmK-84" value="540" style="text;html=1;strokeColor=none;fillColor=none;align=center;verticalAlign=middle;whiteSpace=wrap;rounded=0;fontColor=#000000;" vertex="1" parent="1">
          <mxGeometry x="399" y="-295" width="60" height="30" as="geometry" />
        </mxCell>
        <mxCell id="Y7ee8ukr4ZgqE5oiGkmK-85" value="630" style="text;html=1;strokeColor=none;fillColor=none;align=center;verticalAlign=middle;whiteSpace=wrap;rounded=0;fontColor=#000000;" vertex="1" parent="1">
          <mxGeometry x="444.57" y="-295" width="60" height="30" as="geometry" />
        </mxCell>
        <mxCell id="Y7ee8ukr4ZgqE5oiGkmK-86" value="0" style="text;html=1;strokeColor=none;fillColor=none;align=center;verticalAlign=middle;whiteSpace=wrap;rounded=0;fontColor=#000000;" vertex="1" parent="1">
          <mxGeometry x="129" y="-295" width="60" height="30" as="geometry" />
        </mxCell>
        <mxCell id="Y7ee8ukr4ZgqE5oiGkmK-87" value="0" style="text;html=1;strokeColor=none;fillColor=none;align=center;verticalAlign=middle;whiteSpace=wrap;rounded=0;fontColor=#000000;" vertex="1" parent="1">
          <mxGeometry x="130" y="-175" width="60" height="30" as="geometry" />
        </mxCell>
        <mxCell id="Y7ee8ukr4ZgqE5oiGkmK-88" value="330" style="text;html=1;strokeColor=none;fillColor=none;align=center;verticalAlign=middle;whiteSpace=wrap;rounded=0;fontColor=#000000;" vertex="1" parent="1">
          <mxGeometry x="295.57" y="-175" width="60" height="30" as="geometry" />
        </mxCell>
        <mxCell id="Y7ee8ukr4ZgqE5oiGkmK-89" value="440" style="text;html=1;strokeColor=none;fillColor=none;align=center;verticalAlign=middle;whiteSpace=wrap;rounded=0;fontColor=#000000;" vertex="1" parent="1">
          <mxGeometry x="350" y="-175" width="60" height="30" as="geometry" />
        </mxCell>
        <mxCell id="Y7ee8ukr4ZgqE5oiGkmK-90" value="550" style="text;html=1;strokeColor=none;fillColor=none;align=center;verticalAlign=middle;whiteSpace=wrap;rounded=0;fontColor=#000000;" vertex="1" parent="1">
          <mxGeometry x="405.57" y="-175" width="60" height="30" as="geometry" />
        </mxCell>
        <mxCell id="Y7ee8ukr4ZgqE5oiGkmK-91" value="660" style="text;html=1;strokeColor=none;fillColor=none;align=center;verticalAlign=middle;whiteSpace=wrap;rounded=0;fontColor=#000000;" vertex="1" parent="1">
          <mxGeometry x="459" y="-175" width="60" height="30" as="geometry" />
        </mxCell>
        <mxCell id="Y7ee8ukr4ZgqE5oiGkmK-92" value="770" style="text;html=1;strokeColor=none;fillColor=none;align=center;verticalAlign=middle;whiteSpace=wrap;rounded=0;fontColor=#000000;" vertex="1" parent="1">
          <mxGeometry x="515.57" y="-175" width="60" height="30" as="geometry" />
        </mxCell>
        <mxCell id="Y7ee8ukr4ZgqE5oiGkmK-93" value="simulation&lt;br&gt;cycles" style="text;html=1;strokeColor=none;fillColor=none;align=center;verticalAlign=middle;whiteSpace=wrap;rounded=0;fontColor=#7F00FF;fontSize=16;" vertex="1" parent="1">
          <mxGeometry x="69.42999999999998" y="-40" width="60" height="40" as="geometry" />
        </mxCell>
        <mxCell id="Y7ee8ukr4ZgqE5oiGkmK-94" value="" style="endArrow=classic;html=1;rounded=0;strokeColor=#7F00FF;fontSize=16;fontColor=#FF0000;" edge="1" parent="1">
          <mxGeometry width="50" height="50" relative="1" as="geometry">
            <mxPoint x="159.42999999999984" as="sourcePoint" />
            <mxPoint x="159.42999999999984" y="-40" as="targetPoint" />
          </mxGeometry>
        </mxCell>
        <mxCell id="Y7ee8ukr4ZgqE5oiGkmK-95" value="" style="endArrow=classic;html=1;rounded=0;strokeColor=#7F00FF;fontSize=16;fontColor=#FF0000;" edge="1" parent="1">
          <mxGeometry width="50" height="50" relative="1" as="geometry">
            <mxPoint x="226.63999999999987" as="sourcePoint" />
            <mxPoint x="226.63999999999987" y="-40" as="targetPoint" />
          </mxGeometry>
        </mxCell>
        <mxCell id="Y7ee8ukr4ZgqE5oiGkmK-96" value="" style="endArrow=classic;html=1;rounded=0;strokeColor=#7F00FF;fontSize=16;fontColor=#FF0000;" edge="1" parent="1">
          <mxGeometry width="50" height="50" relative="1" as="geometry">
            <mxPoint x="294.42999999999984" as="sourcePoint" />
            <mxPoint x="294.42999999999984" y="-40" as="targetPoint" />
          </mxGeometry>
        </mxCell>
        <mxCell id="Y7ee8ukr4ZgqE5oiGkmK-97" value="" style="endArrow=classic;html=1;rounded=0;strokeColor=#7F00FF;fontSize=16;fontColor=#FF0000;" edge="1" parent="1">
          <mxGeometry width="50" height="50" relative="1" as="geometry">
            <mxPoint x="361.6399999999999" as="sourcePoint" />
            <mxPoint x="361.6399999999999" y="-40" as="targetPoint" />
          </mxGeometry>
        </mxCell>
        <mxCell id="Y7ee8ukr4ZgqE5oiGkmK-98" value="" style="endArrow=classic;html=1;rounded=0;strokeColor=#7F00FF;fontSize=16;fontColor=#FF0000;" edge="1" parent="1">
          <mxGeometry width="50" height="50" relative="1" as="geometry">
            <mxPoint x="429.4300000000003" as="sourcePoint" />
            <mxPoint x="429.4300000000003" y="-40" as="targetPoint" />
          </mxGeometry>
        </mxCell>
        <mxCell id="Y7ee8ukr4ZgqE5oiGkmK-99" value="" style="endArrow=classic;html=1;rounded=0;strokeColor=#7F00FF;fontSize=16;fontColor=#FF0000;" edge="1" parent="1">
          <mxGeometry width="50" height="50" relative="1" as="geometry">
            <mxPoint x="496.6400000000003" as="sourcePoint" />
            <mxPoint x="496.6400000000003" y="-40" as="targetPoint" />
          </mxGeometry>
        </mxCell>
        <mxCell id="Y7ee8ukr4ZgqE5oiGkmK-100" value="" style="endArrow=classic;html=1;rounded=0;strokeColor=#7F00FF;fontSize=16;fontColor=#FF0000;" edge="1" parent="1">
          <mxGeometry width="50" height="50" relative="1" as="geometry">
            <mxPoint x="564.4299999999998" as="sourcePoint" />
            <mxPoint x="564.4299999999998" y="-40" as="targetPoint" />
          </mxGeometry>
        </mxCell>
        <mxCell id="Y7ee8ukr4ZgqE5oiGkmK-101" value="" style="endArrow=classic;html=1;rounded=0;strokeColor=#FF0000;fontSize=16;fontColor=#FF0000;" edge="1" parent="1">
          <mxGeometry width="50" height="50" relative="1" as="geometry">
            <mxPoint x="204.65999999999985" as="sourcePoint" />
            <mxPoint x="204.65999999999985" y="-40" as="targetPoint" />
          </mxGeometry>
        </mxCell>
        <mxCell id="Y7ee8ukr4ZgqE5oiGkmK-102" value="" style="endArrow=classic;html=1;rounded=0;strokeColor=#FF0000;fontSize=16;fontColor=#FF0000;" edge="1" parent="1">
          <mxGeometry width="50" height="50" relative="1" as="geometry">
            <mxPoint x="250" as="sourcePoint" />
            <mxPoint x="250" y="-40" as="targetPoint" />
          </mxGeometry>
        </mxCell>
        <mxCell id="Y7ee8ukr4ZgqE5oiGkmK-103" value="" style="endArrow=classic;html=1;rounded=0;strokeColor=#FF0000;fontSize=16;fontColor=#FF0000;" edge="1" parent="1">
          <mxGeometry width="50" height="50" relative="1" as="geometry">
            <mxPoint x="339.30999999999995" as="sourcePoint" />
            <mxPoint x="339.30999999999995" y="-40" as="targetPoint" />
          </mxGeometry>
        </mxCell>
        <mxCell id="Y7ee8ukr4ZgqE5oiGkmK-104" value="" style="endArrow=classic;html=1;rounded=0;strokeColor=#FF0000;fontSize=16;fontColor=#FF0000;" edge="1" parent="1">
          <mxGeometry width="50" height="50" relative="1" as="geometry">
            <mxPoint x="384.65999999999985" as="sourcePoint" />
            <mxPoint x="384.65999999999985" y="-40" as="targetPoint" />
          </mxGeometry>
        </mxCell>
        <mxCell id="Y7ee8ukr4ZgqE5oiGkmK-105" value="" style="endArrow=classic;html=1;rounded=0;strokeColor=#FF0000;fontSize=16;fontColor=#FF0000;" edge="1" parent="1">
          <mxGeometry width="50" height="50" relative="1" as="geometry">
            <mxPoint x="474.65999999999985" as="sourcePoint" />
            <mxPoint x="474.65999999999985" y="-40" as="targetPoint" />
          </mxGeometry>
        </mxCell>
        <mxCell id="Y7ee8ukr4ZgqE5oiGkmK-106" value="" style="endArrow=classic;html=1;rounded=0;strokeColor=#FF0000;fontSize=16;fontColor=#FF0000;" edge="1" parent="1">
          <mxGeometry width="50" height="50" relative="1" as="geometry">
            <mxPoint x="520" as="sourcePoint" />
            <mxPoint x="520" y="-40" as="targetPoint" />
          </mxGeometry>
        </mxCell>
        <mxCell id="Y7ee8ukr4ZgqE5oiGkmK-107" value="" style="endArrow=none;dashed=1;html=1;rounded=0;strokeColor=#7F00FF;fontColor=#000000;" edge="1" parent="1">
          <mxGeometry width="50" height="50" relative="1" as="geometry">
            <mxPoint x="216" y="-50" as="sourcePoint" />
            <mxPoint x="216" y="-410" as="targetPoint" />
          </mxGeometry>
        </mxCell>
        <mxCell id="Y7ee8ukr4ZgqE5oiGkmK-108" value="" style="endArrow=none;dashed=1;html=1;rounded=0;strokeColor=#7F00FF;fontColor=#000000;" edge="1" parent="1">
          <mxGeometry width="50" height="50" relative="1" as="geometry">
            <mxPoint x="227" y="-49" as="sourcePoint" />
            <mxPoint x="227" y="-409" as="targetPoint" />
          </mxGeometry>
        </mxCell>
        <mxCell id="Y7ee8ukr4ZgqE5oiGkmK-109" value="" style="endArrow=none;dashed=1;html=1;rounded=0;strokeColor=#7F00FF;fontColor=#000000;" edge="1" parent="1">
          <mxGeometry width="50" height="50" relative="1" as="geometry">
            <mxPoint x="251" y="-50" as="sourcePoint" />
            <mxPoint x="251" y="-410" as="targetPoint" />
          </mxGeometry>
        </mxCell>
        <mxCell id="Y7ee8ukr4ZgqE5oiGkmK-110" value="" style="endArrow=none;dashed=1;html=1;rounded=0;strokeColor=#7F00FF;fontColor=#000000;" edge="1" parent="1">
          <mxGeometry width="50" height="50" relative="1" as="geometry">
            <mxPoint x="270" y="-49" as="sourcePoint" />
            <mxPoint x="270" y="-409" as="targetPoint" />
          </mxGeometry>
        </mxCell>
        <mxCell id="Y7ee8ukr4ZgqE5oiGkmK-111" value="" style="endArrow=none;dashed=1;html=1;rounded=0;strokeColor=#7F00FF;fontColor=#000000;" edge="1" parent="1">
          <mxGeometry width="50" height="50" relative="1" as="geometry">
            <mxPoint x="295" y="-49" as="sourcePoint" />
            <mxPoint x="295" y="-409" as="targetPoint" />
          </mxGeometry>
        </mxCell>
        <mxCell id="Y7ee8ukr4ZgqE5oiGkmK-112" value="" style="endArrow=classic;html=1;rounded=0;strokeColor=#00CC00;fontSize=16;fontColor=#FF00FF;" edge="1" parent="1">
          <mxGeometry width="50" height="50" relative="1" as="geometry">
            <mxPoint x="215.32999999999993" as="sourcePoint" />
            <mxPoint x="215.32999999999993" y="-40" as="targetPoint" />
          </mxGeometry>
        </mxCell>
        <mxCell id="Y7ee8ukr4ZgqE5oiGkmK-113" value="" style="endArrow=classic;html=1;rounded=0;strokeColor=#00CC00;fontSize=16;fontColor=#FF00FF;" edge="1" parent="1">
          <mxGeometry width="50" height="50" relative="1" as="geometry">
            <mxPoint x="270.09000000000015" as="sourcePoint" />
            <mxPoint x="270.09000000000015" y="-40" as="targetPoint" />
          </mxGeometry>
        </mxCell>
        <mxCell id="Y7ee8ukr4ZgqE5oiGkmK-114" value="" style="endArrow=classic;html=1;rounded=0;strokeColor=#00CC00;fontSize=16;fontColor=#FF00FF;" edge="1" parent="1">
          <mxGeometry width="50" height="50" relative="1" as="geometry">
            <mxPoint x="325.3299999999999" as="sourcePoint" />
            <mxPoint x="325.3299999999999" y="-40" as="targetPoint" />
          </mxGeometry>
        </mxCell>
        <mxCell id="Y7ee8ukr4ZgqE5oiGkmK-115" value="" style="endArrow=classic;html=1;rounded=0;strokeColor=#00CC00;fontSize=16;fontColor=#FF00FF;" edge="1" parent="1">
          <mxGeometry width="50" height="50" relative="1" as="geometry">
            <mxPoint x="379.75999999999976" as="sourcePoint" />
            <mxPoint x="379.75999999999976" y="-40" as="targetPoint" />
          </mxGeometry>
        </mxCell>
        <mxCell id="Y7ee8ukr4ZgqE5oiGkmK-116" value="" style="endArrow=classic;html=1;rounded=0;strokeColor=#00CC00;fontSize=16;fontColor=#FF00FF;" edge="1" parent="1">
          <mxGeometry width="50" height="50" relative="1" as="geometry">
            <mxPoint x="435.3299999999999" as="sourcePoint" />
            <mxPoint x="435.3299999999999" y="-40" as="targetPoint" />
          </mxGeometry>
        </mxCell>
        <mxCell id="Y7ee8ukr4ZgqE5oiGkmK-117" value="" style="endArrow=classic;html=1;rounded=0;strokeColor=#00CC00;fontSize=16;fontColor=#FF00FF;" edge="1" parent="1">
          <mxGeometry width="50" height="50" relative="1" as="geometry">
            <mxPoint x="490.09000000000015" as="sourcePoint" />
            <mxPoint x="490.09000000000015" y="-40" as="targetPoint" />
          </mxGeometry>
        </mxCell>
        <mxCell id="Y7ee8ukr4ZgqE5oiGkmK-118" value="" style="endArrow=classic;html=1;rounded=0;strokeColor=#00CC00;fontSize=16;fontColor=#FF00FF;" edge="1" parent="1">
          <mxGeometry width="50" height="50" relative="1" as="geometry">
            <mxPoint x="545.3299999999999" as="sourcePoint" />
            <mxPoint x="545.3299999999999" y="-40" as="targetPoint" />
          </mxGeometry>
        </mxCell>
      </root>
    </mxGraphModel>
  </diagram>
</mxfile>
